# xmcd
#
# Track frame offsets: 
#        150
#        18704
#        36131
#        43454
#        56564
#        77242
#        96046
#        119282
#        135046
#        151129
#        167744
#        174944
#
# Disc length: 2503 seconds
#
# Revision: 0
# Processed by: cddbd v1.5.2PL0 Copyright (c) Steve Scherf et al.
# Submitted via: ExactAudioCopy v1.0b4
#
DISCID=9109c50c
DTITLE=Wetterstein - Ev'ry Night (LP)
DYEAR=1900
DGENRE=Blues
TTITLE0=Ev'ry Night
TTITLE1=Carry On
TTITLE2=Calling You
TTITLE3=Wien Regie
TTITLE4=Dream
TTITLE5=This Was
TTITLE6=Never Change
TTITLE7=Gotta Believe
TTITLE8=Natako
TTITLE9=I Need
TTITLE10=alab
TTITLE11=True Story
EXTD=
EXTT0=
EXTT1=
EXTT2=
EXTT3=
EXTT4=
EXTT5=
EXTT6=
EXTT7=
EXTT8=
EXTT9=
EXTT10=
EXTT11=
PLAYORDER=
